<?xml version="1.0" encoding="UTF-8" standalone="no"?>
<svg
   id="Capa_1"
   data-name="Capa 1"
   viewBox="0 0 972 972"
   version="1.1"
   sodipodi:docname="icono.svg"
   width="972"
   height="972"
   inkscape:version="1.4 (e7c3feb1, 2024-10-09)"
   xmlns:inkscape="http://www.inkscape.org/namespaces/inkscape"
   xmlns:sodipodi="http://sodipodi.sourceforge.net/DTD/sodipodi-0.dtd"
   xmlns="http://www.w3.org/2000/svg"
   xmlns:svg="http://www.w3.org/2000/svg"
   xmlns:rdf="http://www.w3.org/1999/02/22-rdf-syntax-ns#"
   xmlns:cc="http://creativecommons.org/ns#"
   xmlns:dc="http://purl.org/dc/elements/1.1/">
  <sodipodi:namedview
     id="namedview13"
     pagecolor="#ffffff"
     bordercolor="#000000"
     borderopacity="0.25"
     inkscape:showpageshadow="2"
     inkscape:pageopacity="0.0"
     inkscape:pagecheckerboard="0"
     inkscape:deskcolor="#d1d1d1"
     inkscape:zoom="0.24913161"
     inkscape:cx="525.82649"
     inkscape:cy="461.6034"
     inkscape:window-width="1512"
     inkscape:window-height="847"
     inkscape:window-x="0"
     inkscape:window-y="34"
     inkscape:window-maximized="1"
     inkscape:current-layer="Capa_1" />
  <defs
     id="defs7">
    <style
       id="style1">.cls-1{fill:url(#linear-gradient);}.cls-2{fill:#fff;}</style>
    <linearGradient
       id="linear-gradient"
       x1="54.18"
       y1="540"
       x2="1025.8199"
       y2="540"
       gradientUnits="userSpaceOnUse"
       gradientTransform="translate(-54.18,-54.18)">
      <stop
         offset="0"
         stop-color="#ae4291"
         id="stop1" />
      <stop
         offset="0.04"
         stop-color="#a5408e"
         id="stop2" />
      <stop
         offset="0.25"
         stop-color="#7d3782"
         id="stop3" />
      <stop
         offset="0.45"
         stop-color="#5e3178"
         id="stop4" />
      <stop
         offset="0.65"
         stop-color="#472c71"
         id="stop5" />
      <stop
         offset="0.83"
         stop-color="#3a296c"
         id="stop6" />
      <stop
         offset="1"
         stop-color="#35286b"
         id="stop7" />
    </linearGradient>
  </defs>
  <title
     id="title7">icono plataforma</title>
  <rect
     class="cls-1"
     x="3.0517577e-07"
     y="3.0517577e-07"
     width="971.65002"
     height="971.65002"
     rx="200.33"
     id="rect7"
     style="fill:url(#linear-gradient)"
     ry="200.33" />
  <path
     class="cls-2"
     d="m 821.65,363.13 c 114.63,132.06 16.87,223.69 0,243.51 -16.87,19.82 -191.25,201 -191.25,201 L 548.82,719.9 c 0,0 73,-64 137.14,-131.27 l 0.34,-0.34 c 19.25,-18.91 131.07,-135.68 104.52,-259.14 11.25,12.01 21.6,23.33 30.83,33.98 z"
     id="path7" />
  <path
     class="cls-2"
     d="m 475.71,29.01 c 0,0 201.26,178.27 315.11,300.14 26.55,123.46 -85.27,240.23 -104.51,259.14 5.85,-6.11 11.59,-12.34 17.21,-18.46 67.5,-73.62 25.31,-130.25 8.44,-155.73 C 695.09,388.62 405.39,102.63 405.39,102.63 Z"
     id="path8" />
  <path
     class="cls-2"
     d="m 285.35,383.32 c -5.85,6.12 -11.59,12.35 -17.22,18.46 -67.5,73.62 -25.31,130.25 -8.43,155.74 16.88,25.49 306.56,311.46 306.56,311.46 l -70.31,73.62 c 0,0 -201,-178.27 -315.12,-300 -26.55,-123.59 85.28,-240.36 104.52,-259.28 z"
     id="path9" />
  <path
     class="cls-2"
     d="m 150.01,364.98 c 16.87,-19.83 191.25,-201 191.25,-201 l 81.56,87.73 c 0,0 -73,64 -137.14,131.27 l -0.33,0.34 C 266.11,402.24 154.28,519.01 180.82,642.58 169.57,630.58 159.22,619.13 150,608.48 35.37,476.42 133.13,384.82 150.01,364.98 Z"
     id="path10" />
  <path
     class="cls-2"
     d="m 391.5,456.19 c 31.68,55.88 165.24,52.19 188.39,-1.67 4,19.64 -4.08,33.66 -20.31,44.19 -37.55,24.34 -109.09,24.57 -146.81,0.58 -15.5,-9.86 -24.9,-22.57 -21.27,-43.1 z"
     id="path11" />
  <path
     class="cls-2"
     d="m 391.5,495.12 c 31.68,55.88 165.24,52.2 188.39,-1.67 4,19.64 -4.08,33.67 -20.31,44.19 -37.55,24.34 -109.09,24.57 -146.81,0.58 -15.5,-9.86 -24.9,-22.57 -21.27,-43.1 z"
     id="path12" />
  <path
     class="cls-2"
     d="m 391.5,417.25 c 31.68,55.89 165.24,52.2 188.39,-1.67 4,19.65 -4.08,33.67 -20.31,44.19 -37.55,24.35 -109.09,24.58 -146.81,0.58 -15.5,-9.86 -24.9,-22.53 -21.27,-43.1 z"
     id="path13" />
  <metadata
     id="metadata13">
    <rdf:RDF>
      <cc:Work
         rdf:about="">
        <dc:title>icono plataforma</dc:title>
      </cc:Work>
    </rdf:RDF>
  </metadata>
</svg>
