<svg id="Capa_1" data-name="Capa 1" xmlns="http://www.w3.org/2000/svg" xmlns:xlink="http://www.w3.org/1999/xlink" viewBox="0 0 4735.21 1396.66"><defs><style>.cls-1{fill:url(#Degradado_sin_nombre);}.cls-2{fill:url(#Degradado_sin_nombre_2);}.cls-3{fill:url(#Degradado_sin_nombre_3);}.cls-4{fill:url(#Degradado_sin_nombre_4);}.cls-5{fill:url(#Degradado_sin_nombre_5);}.cls-6{fill:url(#Degradado_sin_nombre_6);}.cls-7{fill:url(#Degradado_sin_nombre_7);}.cls-8{fill:url(#Degradado_sin_nombre_8);}.cls-9{fill:url(#Degradado_sin_nombre_9);}.cls-10{fill:url(#Degradado_sin_nombre_10);}.cls-11{fill:url(#Degradado_sin_nombre_11);}.cls-12{fill:url(#Degradado_sin_nombre_12);}.cls-13{fill:url(#Degradado_sin_nombre_13);}.cls-14{fill:url(#Degradado_sin_nombre_14);}.cls-15{fill:url(#Degradado_sin_nombre_15);}.cls-16{fill:url(#Degradado_sin_nombre_16);}.cls-17,.cls-19,.cls-20{isolation:isolate;}.cls-18,.cls-19,.cls-20{fill:#fff;}.cls-19,.cls-20{font-size:223.42px;font-family:Montserrat-Bold, Montserrat;font-weight:700;}.cls-19{letter-spacing:-0.01em;}</style><linearGradient id="Degradado_sin_nombre" x1="919.32" y1="696.82" x2="1104.41" y2="376.23" gradientTransform="matrix(1, 0, 0, -1, 0, 1396)" gradientUnits="userSpaceOnUse"><stop offset="0" stop-color="#ae4291"/><stop offset="0.04" stop-color="#a5408e"/><stop offset="0.25" stop-color="#7d3782"/><stop offset="0.45" stop-color="#5e3178"/><stop offset="0.65" stop-color="#472c71"/><stop offset="0.83" stop-color="#3a296c"/><stop offset="1" stop-color="#35286b"/></linearGradient><linearGradient id="Degradado_sin_nombre_2" x1="839.31" y1="1025" x2="1059.27" y2="644.01" xlink:href="#Degradado_sin_nombre"/><linearGradient id="Degradado_sin_nombre_3" x1="423.43" y1="889.15" x2="608.55" y2="568.51" xlink:href="#Degradado_sin_nombre"/><linearGradient id="Degradado_sin_nombre_4" x1="509.82" y1="549.85" x2="729.83" y2="168.78" xlink:href="#Degradado_sin_nombre"/><linearGradient id="Degradado_sin_nombre_5" x1="1366.01" y1="971.81" x2="1547.93" y2="656.71" xlink:href="#Degradado_sin_nombre"/><linearGradient id="Degradado_sin_nombre_6" x1="1734.8" y1="921.1" x2="1926.6" y2="588.88" xlink:href="#Degradado_sin_nombre"/><linearGradient id="Degradado_sin_nombre_7" x1="2156.24" y1="921.1" x2="2348.05" y2="588.88" xlink:href="#Degradado_sin_nombre"/><linearGradient id="Degradado_sin_nombre_8" x1="2514.62" y1="915.57" x2="2724.02" y2="552.86" xlink:href="#Degradado_sin_nombre"/><linearGradient id="Degradado_sin_nombre_9" x1="2937.58" y1="937.6" x2="3142.76" y2="582.22" xlink:href="#Degradado_sin_nombre"/><linearGradient id="Degradado_sin_nombre_10" x1="3353.18" y1="845.18" x2="3537.75" y2="525.5" xlink:href="#Degradado_sin_nombre"/><linearGradient id="Degradado_sin_nombre_11" x1="3821.4" y1="971.81" x2="4003.32" y2="656.71" xlink:href="#Degradado_sin_nombre"/><linearGradient id="Degradado_sin_nombre_12" x1="4159.42" y1="845.18" x2="4344" y2="525.5" xlink:href="#Degradado_sin_nombre"/><linearGradient id="Degradado_sin_nombre_13" x1="623.33" y1="899.31" x2="691.65" y2="780.97" xlink:href="#Degradado_sin_nombre"/><linearGradient id="Degradado_sin_nombre_14" x1="623.32" y1="855.33" x2="691.64" y2="737" xlink:href="#Degradado_sin_nombre"/><linearGradient id="Degradado_sin_nombre_15" x1="623.32" y1="943.28" x2="691.65" y2="824.95" xlink:href="#Degradado_sin_nombre"/><linearGradient id="Degradado_sin_nombre_16" x1="1389.46" y1="317.54" x2="3633.02" y2="317.54" xlink:href="#Degradado_sin_nombre"/></defs><title>vector logo tooldata social listening_Mesa de trabajo 1</title><path class="cls-1" d="M1033.72,435.06c129.49,149.29,19.06,252.66,0,275.05s-216,227.08-216,227.08l-92.13-99.14S806.15,767.43,878,692.46l1.4-1.41C894.7,676.21,1029.78,540.6,998.9,396.68,1011.6,410.11,1023.3,423,1033.72,435.06Z"/><path class="cls-2" d="M998.9,396.68c30.88,143.92-104.2,279.53-119.58,294.37,7-7.55,14.11-15,21-22.52,76.24-83.15,28.59-147.12,9.53-175.9S563.54,140.81,563.54,140.81L643,57.65S870.17,259.15,998.9,396.68Z"/><path class="cls-3" d="M275.19,712.32c-129.61-149.29-19.06-252.66,0-275.05s216-227.08,216-227.08l92.13,99.15S502.79,380,431,454.92l-1.4,1.41C414.22,471.17,279.14,606.91,309.9,750.7,297.31,737.14,285.61,724.35,275.19,712.32Z"/><path class="cls-4" d="M309.89,750.7c-30.76-143.79,104.32-279.53,119.7-294.37-7,7.55-14.11,15-21,22.52C332.38,562,380,626,399.09,654.75s346.28,351.82,346.28,351.82L666,1089.73S438.61,888.23,309.89,750.7Z"/><path class="cls-5" d="M1391,787.55V567.67H1244.45v-73.3h366.48v73.3H1464.34V787.55Z"/><path class="cls-6" d="M1720.87,787.55q-30.64,0-51.82-21.47-21.48-21.48-21.47-51.82V567.67q0-30.36,21.47-51.54,21.46-21.76,51.82-21.76h219.89q30.33,0,51.53,21.76,21.75,21.48,21.76,51.54V714.26q0,30.63-21.76,51.82-21.46,21.46-51.53,21.47Zm183.24-73.29a36.66,36.66,0,0,0,36.65-36.65v-73.3a37.16,37.16,0,0,0-36.65-36.64H1757.52a36.65,36.65,0,0,0-36.65,36.64v73.3a36.18,36.18,0,0,0,35.7,36.65h147.54Z"/><path class="cls-7" d="M2142.32,787.55q-30.65,0-51.82-21.47Q2069,744.6,2069,714.26V567.67q0-30.36,21.48-51.54,21.46-21.76,51.82-21.76h219.9q30.35,0,51.54,21.76,21.75,21.48,21.76,51.54V714.26q0,30.63-21.76,51.82-21.48,21.46-51.54,21.47Zm183.24-73.29a36.68,36.68,0,0,0,36.64-36.65v-73.3a37.16,37.16,0,0,0-36.64-36.64H2179a36.65,36.65,0,0,0-36.65,36.64v73.3a36.18,36.18,0,0,0,35.7,36.65h147.51Z"/><path class="cls-8" d="M2563.76,787.55q-30.63,0-51.82-21.47-21.46-21.48-21.47-51.82V494.37h73.29V677.61a36.2,36.2,0,0,0,35.74,36.65h220.8v73.29Z"/><path class="cls-9" d="M2875.27,787.55V494.37h293.18q30.35,0,51.53,21.76,21.75,21.48,21.76,51.54V714.26q0,30.63-21.76,51.82-21.46,21.46-51.53,21.47Zm256.53-73.29a36.66,36.66,0,0,0,36.65-36.65v-73.3a37.16,37.16,0,0,0-36.65-36.64H2948.56V714.26Z"/><path class="cls-10" d="M3278.39,787.55,3406.66,531h.28a73.88,73.88,0,0,1,12-14.89q21.46-21.76,51.82-21.76h18.32q30.35,0,51.54,21.76a73.54,73.54,0,0,1,12,14.89h.58l128.26,256.53h-91.62l-27.48-55H3397.49l-27.48,55Zm256.53-109.94-47.81-95.34q-3.43-2.58-7.16-4.87a71.51,71.51,0,0,0-7.44,4.87L3425,677.61Z"/><path class="cls-11" d="M3846.43,787.55V567.67H3699.84v-73.3h366.47v73.3H3919.72V787.55Z"/><path class="cls-12" d="M4084.64,787.55,4212.9,531h.29a73.26,73.26,0,0,1,12-14.89q21.48-21.76,51.82-21.76h18.33q30.34,0,51.53,21.76a73.88,73.88,0,0,1,12,14.89h.57l128.27,256.53h-91.62l-27.49-55H4203.74l-27.49,55Zm256.53-109.94-47.82-95.34q-3.43-2.58-7.15-4.87a71.65,71.65,0,0,0-7.45,4.87l-47.52,95.34Z"/><path class="cls-13" d="M547.91,540.23c35.78,63.13,186.64,59,212.79-1.88,4.57,22.19-4.61,38-22.94,49.92-42.42,27.49-123.22,27.75-165.83.65C554.42,577.78,543.8,563.42,547.91,540.23Z"/><path class="cls-14" d="M547.91,584.21c35.78,63.12,186.64,59,212.79-1.88,4.57,22.18-4.61,38-22.94,49.91-42.42,27.5-123.22,27.76-165.83.66C554.42,621.76,543.8,607.4,547.91,584.21Z"/><path class="cls-15" d="M547.91,496.26c35.78,63.12,186.64,59,212.79-1.89,4.57,22.19-4.61,38-22.94,49.92-42.42,27.49-123.22,27.75-165.83.65C554.42,533.81,543.8,519.45,547.91,496.26Z"/><rect class="cls-16" x="1389.46" y="946.69" width="2243.56" height="263.55" rx="12"/><g class="cls-17"><g class="cls-17"><path class="cls-18" d="M1473.46,1029.46a13.45,13.45,0,0,0-5,10.94q0,6.82,6.14,10.84t28.38,9.5q22.21,5.48,34.51,16.42t12.29,31.95q0,21-15.75,34.07t-41.44,13.07q-37.1,0-66.81-27.48l20.78-25.47q25.24,22.11,46.7,22.12,9.6,0,15.08-4.14a13.28,13.28,0,0,0,5.47-11.17,13,13,0,0,0-5.81-11.17q-5.81-4.12-23-8.38-27.26-6.48-39.88-16.87t-12.62-32.62q0-22.23,16-34.29t39.88-12.07a95.85,95.85,0,0,1,31.28,5.37,83.87,83.87,0,0,1,27.26,15.19l-17.65,25.47q-20.34-15.42-42-15.42Q1478.49,1025.32,1473.46,1029.46Z"/><path class="cls-18" d="M1710.84,1132.9q-23.68,23.13-58.31,23.12t-58.31-23.12q-23.68-23.13-23.68-57.53t23.68-57.53q23.67-23.13,58.31-23.13t58.31,23.13q23.69,23.11,23.69,57.53T1710.84,1132.9ZM1699,1075.48q0-20.88-13.4-35.63t-33-14.75q-19.55,0-33,14.75t-13.41,35.63q0,20.89,13.41,35.52t33,14.64q19.54,0,33-14.64T1699,1075.48Z"/><path class="cls-18" d="M1835.73,1123.63q25.69,0,42-20.33l22.34,23q-26.6,29.94-62.67,29.94T1778,1133.46q-23.36-22.79-23.35-57.53t23.8-58q23.79-23.24,58.2-23.24,38.41,0,64.34,29.27l-21.67,24.58q-16.53-20.55-41.11-20.56-19.67,0-33.62,12.85t-14,34.63q0,21.78,13.18,35A43.51,43.51,0,0,0,1835.73,1123.63Z"/><path class="cls-18" d="M1927.56,998.29h34.85v156.17h-34.85Z"/><path class="cls-18" d="M2112.1,1154.46l-14.52-33.74h-65.46l-14.53,33.74H1980.5L2048,998.29h33.73l67.48,156.17ZM2065,1044.76l-19.66,45.36h39.1Z"/><path class="cls-18" d="M2167.28,1154.46V998.29h34.86V1123.4h66.58v31.06Z"/><path class="cls-18" d="M2353.17,1154.46V998.29H2388V1123.4h66.58v31.06Z"/><path class="cls-18" d="M2480.07,998.29h34.85v156.17h-34.85Z"/></g><text class="cls-19" transform="translate(2534.15 1154.46)">S</text><text class="cls-20" transform="translate(2675.35 1154.46)">TENING</text></g></svg>